<svg viewBox="0 0 12 12" width="60px" height="60px" xmlns="http://www.w3.org/2000/svg"><path fill-rule="evenodd" d="M 0,1 3,1 3,2 4,2 4,6 5,6 5,8 6,8 6,6 7,6 7,2 8,2 8,1 11,1 11,4 10,4 10,5 11,5 11,11 8,11 8,10 7,10 7,11 4,11 4,10 3,10 3,11 0,11 0,5 1,5 1,4 0,4z" fill="#EB6847"/><path fill-rule="evenodd" d="M 1,2 2,2 2,3 1,3z" fill="#ffffff"/><path fill-rule="evenodd" d="M 9,2 10,2 10,3 9,3z" fill="#ffffff"/><path fill-rule="evenodd" d="M 2,3 3,3 3,5 2,5z" fill="#ffffff"/><path fill-rule="evenodd" d="M 8,3 9,3 9,5 8,5z" fill="#ffffff"/><path fill-rule="evenodd" d="M 1,6 3,6 3,7 4,7 4,8 3,8 3,9 2,9 2,7 1,7z" fill="#ffffff"/><path fill-rule="evenodd" d="M 8,6 10,6 10,7 9,7 9,9 8,9 8,8 7,8 7,7 8,7z" fill="#ffffff"/><path fill-rule="evenodd" d="M 1,9 2,9 2,10 1,10z" fill="#ffffff"/><path fill-rule="evenodd" d="M 5,9 6,9 6,10 5,10z" fill="#ffffff"/><path fill-rule="evenodd" d="M 9,9 10,9 10,10 9,10z" fill="#ffffff"/></svg>